# WaveFront *.obj file (generated by Autodesk ATF)

mtllib 51f99662-e9a5-4df9-8244-3351c2658a20.mtl

g Body2

v 1.000000 -0.500000 -0.000000
v 1.000000 -0.493181 0.082297
v 1.000000 -0.472909 0.162350
v 1.000000 -0.439737 0.237974
v 1.000000 -0.394570 0.307106
v 1.000000 -0.338641 0.367862
v 1.000000 -0.273474 0.418583
v 1.000000 -0.200848 0.457887
v 1.000000 -0.122743 0.484700
v 1.000000 -0.041290 0.498292
v 1.000000 0.041290 0.498292
v 1.000000 0.122743 0.484700
v 1.000000 0.200848 0.457887
v 1.000000 0.273474 0.418583
v 1.000000 0.338641 0.367862
v 1.000000 0.394570 0.307106
v 1.000000 0.439737 0.237974
v 1.000000 0.472909 0.162350
v 1.000000 0.493181 0.082297
v 1.000000 0.500000 0.000000
v 1.000000 0.493181 -0.082297
v 1.000000 0.472909 -0.162350
v 1.000000 0.439737 -0.237974
v 1.000000 0.394570 -0.307106
v 1.000000 0.338641 -0.367862
v 1.000000 0.273474 -0.418583
v 1.000000 0.200848 -0.457887
v 1.000000 0.122743 -0.484700
v 1.000000 0.041290 -0.498292
v 1.000000 -0.041290 -0.498292
v 1.000000 -0.122743 -0.484700
v 1.000000 -0.200848 -0.457887
v 1.000000 -0.273474 -0.418583
v 1.000000 -0.338641 -0.367862
v 1.000000 -0.394570 -0.307106
v 1.000000 -0.439737 -0.237974
v 1.000000 -0.472909 -0.162350
v 1.000000 -0.493181 -0.082297
v 0.000000 -0.500000 -0.000000
v 0.000000 -0.493181 -0.082297
v 0.000000 -0.472909 -0.162350
v 0.000000 -0.439737 -0.237974
v 0.000000 -0.394570 -0.307106
v 0.000000 -0.338641 -0.367862
v 0.000000 -0.273474 -0.418583
v 0.000000 -0.200848 -0.457887
v 0.000000 -0.122743 -0.484700
v 0.000000 -0.041290 -0.498292
v 0.000000 0.041290 -0.498292
v 0.000000 0.122743 -0.484700
v 0.000000 0.200848 -0.457887
v 0.000000 0.273474 -0.418583
v 0.000000 0.338641 -0.367862
v 0.000000 0.394570 -0.307106
v 0.000000 0.439737 -0.237974
v 0.000000 0.472909 -0.162350
v 0.000000 0.493181 -0.082297
v 0.000000 0.500000 0.000000
v 0.000000 0.493181 0.082297
v 0.000000 0.472909 0.162350
v 0.000000 0.439737 0.237974
v 0.000000 0.394570 0.307106
v 0.000000 0.338641 0.367862
v 0.000000 0.273474 0.418583
v 0.000000 0.200848 0.457887
v 0.000000 0.122743 0.484700
v 0.000000 0.041290 0.498292
v 0.000000 -0.041290 0.498292
v 0.000000 -0.122743 0.484700
v 0.000000 -0.200848 0.457887
v 0.000000 -0.273474 0.418583
v 0.000000 -0.338641 0.367862
v 0.000000 -0.394570 0.307106
v 0.000000 -0.439737 0.237974
v 0.000000 -0.472909 0.162350
v 0.000000 -0.493181 0.082297
vt -2.540000 3.779832 0.000000
vt -0.000000 3.779832 0.000000
vt -2.540000 3.989823 0.000000
vt -0.000000 3.989823 0.000000
vt -2.540000 -3.989823 0.000000
vt -0.000000 -3.989823 0.000000
vt -2.540000 -3.779832 0.000000
vt -0.000000 -3.779832 0.000000
vt -2.540000 -3.569841 0.000000
vt -0.000000 -3.569841 0.000000
vt -2.540000 -3.359851 0.000000
vt -0.000000 -3.359851 0.000000
vt -2.540000 -3.149860 0.000000
vt -0.000000 -3.149860 0.000000
vt -2.540000 -2.939869 0.000000
vt -0.000000 -2.939869 0.000000
vt -2.540000 -2.729879 0.000000
vt -0.000000 -2.729879 0.000000
vt -2.540000 -2.519888 0.000000
vt -0.000000 -2.519888 0.000000
vt -2.540000 -2.309897 0.000000
vt -0.000000 -2.309897 0.000000
vt -2.540000 -2.099907 0.000000
vt -0.000000 -2.099907 0.000000
vt -2.540000 -1.889916 0.000000
vt -0.000000 -1.889916 0.000000
vt -2.540000 -1.679925 0.000000
vt -0.000000 -1.679925 0.000000
vt -2.540000 -1.469935 0.000000
vt -0.000000 -1.469935 0.000000
vt -2.540000 -1.259944 0.000000
vt -0.000000 -1.259944 0.000000
vt -2.540000 -1.049953 0.000000
vt -0.000000 -1.049953 0.000000
vt -2.540000 -0.839963 0.000000
vt -0.000000 -0.839963 0.000000
vt -2.540000 -0.629972 0.000000
vt -0.000000 -0.629972 0.000000
vt -2.540000 -0.419981 0.000000
vt -0.000000 -0.419981 0.000000
vt -2.540000 -0.209991 0.000000
vt -0.000000 -0.209991 0.000000
vt -2.540000 0.000000 0.000000
vt -0.000000 0.000000 0.000000
vt -2.540000 0.209991 0.000000
vt -0.000000 0.209991 0.000000
vt -2.540000 0.419981 0.000000
vt -0.000000 0.419981 0.000000
vt -2.540000 0.629972 0.000000
vt -0.000000 0.629972 0.000000
vt -2.540000 0.839963 0.000000
vt -0.000000 0.839963 0.000000
vt -2.540000 1.049953 0.000000
vt -0.000000 1.049953 0.000000
vt -2.540000 1.259944 0.000000
vt -0.000000 1.259944 0.000000
vt -2.540000 1.469935 0.000000
vt -0.000000 1.469935 0.000000
vt -2.540000 1.679925 0.000000
vt -0.000000 1.679925 0.000000
vt -2.540000 1.889916 0.000000
vt -0.000000 1.889916 0.000000
vt -2.540000 2.099907 0.000000
vt -0.000000 2.099907 0.000000
vt -2.540000 2.309897 0.000000
vt -0.000000 2.309897 0.000000
vt -2.540000 2.519888 0.000000
vt -0.000000 2.519888 0.000000
vt -2.540000 2.729879 0.000000
vt -0.000000 2.729879 0.000000
vt -2.540000 2.939869 0.000000
vt -0.000000 2.939869 0.000000
vt -2.540000 3.149860 0.000000
vt -0.000000 3.149860 0.000000
vt -2.540000 3.359851 0.000000
vt -0.000000 3.359851 0.000000
vt -2.540000 3.569841 0.000000
vt -0.000000 3.569841 0.000000
vt -1.252679 -0.209035 0.000000
vt 1.252679 -0.209035 0.000000
vt -1.270000 -0.000000 0.000000
vt 1.270000 0.000000 0.000000
vt -1.252679 0.209035 0.000000
vt 1.252679 0.209035 0.000000
vt -1.201188 0.412368 0.000000
vt 1.201188 0.412368 0.000000
vt -1.116932 0.604453 0.000000
vt 1.116932 0.604453 0.000000
vt -1.002208 0.780050 0.000000
vt 1.002208 0.780050 0.000000
vt -0.860148 0.934369 0.000000
vt 0.860148 0.934369 0.000000
vt -0.694624 1.063201 0.000000
vt 0.694624 1.063201 0.000000
vt -0.510153 1.163032 0.000000
vt 0.510153 1.163032 0.000000
vt -0.311767 1.231138 0.000000
vt 0.311767 1.231138 0.000000
vt -0.104876 1.265662 0.000000
vt 0.104876 1.265662 0.000000
vt 1.201188 -0.412368 0.000000
vt -1.201188 -0.412368 0.000000
vt 1.116932 -0.604453 0.000000
vt -1.116932 -0.604453 0.000000
vt 1.002208 -0.780050 0.000000
vt -1.002208 -0.780050 0.000000
vt 0.860148 -0.934369 0.000000
vt -0.860148 -0.934369 0.000000
vt 0.694624 -1.063201 0.000000
vt -0.694624 -1.063201 0.000000
vt 0.510153 -1.163032 0.000000
vt -0.510153 -1.163032 0.000000
vt 0.311767 -1.231138 0.000000
vt -0.311767 -1.231138 0.000000
vt 0.104876 -1.265662 0.000000
vt -0.104876 -1.265662 0.000000
vt 1.252679 0.209035 0.000000
vt -1.252679 0.209035 0.000000
vt 1.270000 -0.000000 0.000000
vt -1.270000 0.000000 0.000000
vt 1.252679 -0.209035 0.000000
vt -1.252679 -0.209035 0.000000
vt 1.201188 -0.412368 0.000000
vt -1.201188 -0.412368 0.000000
vt 1.116932 -0.604453 0.000000
vt -1.116932 -0.604453 0.000000
vt 1.002208 -0.780050 0.000000
vt -1.002208 -0.780050 0.000000
vt 0.860148 -0.934369 0.000000
vt -0.860148 -0.934369 0.000000
vt 0.694624 -1.063201 0.000000
vt -0.694624 -1.063201 0.000000
vt 0.510153 -1.163032 0.000000
vt -0.510153 -1.163032 0.000000
vt 0.311767 -1.231138 0.000000
vt -0.311767 -1.231138 0.000000
vt 0.104876 -1.265662 0.000000
vt -0.104876 -1.265662 0.000000
vt -1.201188 0.412368 0.000000
vt 1.201188 0.412368 0.000000
vt -1.116932 0.604453 0.000000
vt 1.116932 0.604453 0.000000
vt -1.002208 0.780050 0.000000
vt 1.002208 0.780050 0.000000
vt -0.860148 0.934369 0.000000
vt 0.860148 0.934369 0.000000
vt -0.694624 1.063201 0.000000
vt 0.694624 1.063201 0.000000
vt -0.510153 1.163032 0.000000
vt 0.510153 1.163032 0.000000
vt -0.311767 1.231138 0.000000
vt 0.311767 1.231138 0.000000
vt -0.104876 1.265662 0.000000
vt 0.104876 1.265662 0.000000
vn 0.000000 -2.505358 0.418070
vn 0.000000 -2.505358 0.418070
vn 0.000000 -2.540000 0.000000
vn 0.000000 -2.540000 0.000000
vn 0.000000 -2.505358 -0.418070
vn 0.000000 -2.505358 -0.418070
vn 0.000000 -2.402376 -0.824737
vn 0.000000 -2.402376 -0.824737
vn 0.000000 -2.233863 -1.208906
vn 0.000000 -2.233863 -1.208906
vn 0.000000 -2.004417 -1.560100
vn 0.000000 -2.004417 -1.560100
vn 0.000000 -1.720295 -1.868739
vn 0.000000 -1.720295 -1.868739
vn 0.000000 -1.389248 -2.126403
vn 0.000000 -1.389248 -2.126403
vn 0.000000 -1.020306 -2.326064
vn 0.000000 -1.020306 -2.326064
vn 0.000000 -0.623533 -2.462277
vn 0.000000 -0.623533 -2.462277
vn 0.000000 -0.209752 -2.531325
vn 0.000000 -0.209752 -2.531325
vn -0.000000 0.209752 -2.531325
vn -0.000000 0.209752 -2.531325
vn -0.000000 0.623533 -2.462277
vn -0.000000 0.623533 -2.462277
vn -0.000000 1.020306 -2.326064
vn -0.000000 1.020306 -2.326064
vn -0.000000 1.389248 -2.126403
vn -0.000000 1.389248 -2.126403
vn -0.000000 1.720295 -1.868739
vn -0.000000 1.720295 -1.868739
vn -0.000000 2.004417 -1.560100
vn -0.000000 2.004417 -1.560100
vn -0.000000 2.233863 -1.208906
vn -0.000000 2.233863 -1.208906
vn -0.000000 2.402376 -0.824737
vn -0.000000 2.402376 -0.824737
vn -0.000000 2.505358 -0.418070
vn -0.000000 2.505358 -0.418070
vn -0.000000 2.540000 -0.000000
vn -0.000000 2.540000 -0.000000
vn 0.000000 2.505358 0.418070
vn 0.000000 2.505358 0.418070
vn 0.000000 2.402376 0.824737
vn 0.000000 2.402376 0.824737
vn 0.000000 2.233863 1.208906
vn 0.000000 2.233863 1.208906
vn 0.000000 2.004417 1.560100
vn 0.000000 2.004417 1.560100
vn 0.000000 1.720295 1.868739
vn 0.000000 1.720295 1.868739
vn 0.000000 1.389248 2.126403
vn 0.000000 1.389248 2.126403
vn 0.000000 1.020306 2.326064
vn 0.000000 1.020306 2.326064
vn 0.000000 0.623533 2.462277
vn 0.000000 0.623533 2.462277
vn 0.000000 0.209752 2.531325
vn 0.000000 0.209752 2.531325
vn 0.000000 -0.209752 2.531325
vn 0.000000 -0.209752 2.531325
vn 0.000000 -0.623533 2.462277
vn 0.000000 -0.623533 2.462277
vn 0.000000 -1.020306 2.326064
vn 0.000000 -1.020306 2.326064
vn 0.000000 -1.389248 2.126403
vn 0.000000 -1.389248 2.126403
vn 0.000000 -1.720295 1.868739
vn 0.000000 -1.720295 1.868739
vn 0.000000 -2.004417 1.560100
vn 0.000000 -2.004417 1.560100
vn 0.000000 -2.233863 1.208906
vn 0.000000 -2.233863 1.208906
vn 0.000000 -2.402376 0.824737
vn 0.000000 -2.402376 0.824737
vn 2.540000 0.000000 0.000000
vn 2.540000 0.000000 0.000000
vn 2.540000 0.000000 0.000000
vn 2.540000 0.000000 0.000000
vn 2.540000 0.000000 0.000000
vn 2.540000 0.000000 0.000000
vn 2.540000 0.000000 0.000000
vn 2.540000 0.000000 0.000000
vn 2.540000 0.000000 0.000000
vn 2.540000 0.000000 0.000000
vn 2.540000 0.000000 0.000000
vn 2.540000 0.000000 0.000000
vn 2.540000 0.000000 0.000000
vn 2.540000 0.000000 0.000000
vn 2.540000 0.000000 0.000000
vn 2.540000 0.000000 0.000000
vn 2.540000 0.000000 0.000000
vn 2.540000 0.000000 0.000000
vn 2.540000 0.000000 0.000000
vn 2.540000 0.000000 0.000000
vn 2.540000 0.000000 0.000000
vn 2.540000 0.000000 0.000000
vn 2.540000 0.000000 0.000000
vn 2.540000 0.000000 0.000000
vn 2.540000 0.000000 0.000000
vn 2.540000 0.000000 0.000000
vn 2.540000 0.000000 0.000000
vn 2.540000 0.000000 0.000000
vn 2.540000 0.000000 0.000000
vn 2.540000 0.000000 0.000000
vn 2.540000 0.000000 0.000000
vn 2.540000 0.000000 0.000000
vn 2.540000 0.000000 0.000000
vn 2.540000 0.000000 0.000000
vn 2.540000 0.000000 0.000000
vn 2.540000 0.000000 0.000000
vn 2.540000 0.000000 0.000000
vn 2.540000 0.000000 0.000000
vn -2.540000 0.000000 0.000000
vn -2.540000 0.000000 0.000000
vn -2.540000 0.000000 0.000000
vn -2.540000 0.000000 0.000000
vn -2.540000 0.000000 0.000000
vn -2.540000 0.000000 0.000000
vn -2.540000 0.000000 0.000000
vn -2.540000 0.000000 0.000000
vn -2.540000 0.000000 0.000000
vn -2.540000 0.000000 0.000000
vn -2.540000 0.000000 0.000000
vn -2.540000 0.000000 0.000000
vn -2.540000 0.000000 0.000000
vn -2.540000 0.000000 0.000000
vn -2.540000 0.000000 0.000000
vn -2.540000 0.000000 0.000000
vn -2.540000 0.000000 0.000000
vn -2.540000 0.000000 0.000000
vn -2.540000 0.000000 0.000000
vn -2.540000 0.000000 0.000000
vn -2.540000 0.000000 0.000000
vn -2.540000 0.000000 0.000000
vn -2.540000 0.000000 0.000000
vn -2.540000 0.000000 0.000000
vn -2.540000 0.000000 0.000000
vn -2.540000 0.000000 0.000000
vn -2.540000 0.000000 0.000000
vn -2.540000 0.000000 0.000000
vn -2.540000 0.000000 0.000000
vn -2.540000 0.000000 0.000000
vn -2.540000 0.000000 0.000000
vn -2.540000 0.000000 0.000000
vn -2.540000 0.000000 0.000000
vn -2.540000 0.000000 0.000000
vn -2.540000 0.000000 0.000000
vn -2.540000 0.000000 0.000000
vn -2.540000 0.000000 0.000000
vn -2.540000 0.000000 0.000000
usemtl ABS_(White)
f 2/1/1 76/2/2 1/3/3
f 1/3/3 76/2/2 39/4/4
f 1/5/3 39/6/4 38/7/5
f 38/7/5 39/6/4 40/8/6
f 38/7/5 40/8/6 37/9/7
f 37/9/7 40/8/6 41/10/8
f 37/9/7 41/10/8 36/11/9
f 36/11/9 41/10/8 42/12/10
f 36/11/9 42/12/10 35/13/11
f 35/13/11 42/12/10 43/14/12
f 35/13/11 43/14/12 34/15/13
f 34/15/13 43/14/12 44/16/14
f 34/15/13 44/16/14 33/17/15
f 33/17/15 44/16/14 45/18/16
f 33/17/15 45/18/16 32/19/17
f 32/19/17 45/18/16 46/20/18
f 32/19/17 46/20/18 31/21/19
f 31/21/19 46/20/18 47/22/20
f 31/21/19 47/22/20 30/23/21
f 30/23/21 47/22/20 48/24/22
f 30/23/21 48/24/22 29/25/23
f 29/25/23 48/24/22 49/26/24
f 29/25/23 49/26/24 28/27/25
f 28/27/25 49/26/24 50/28/26
f 28/27/25 50/28/26 27/29/27
f 27/29/27 50/28/26 51/30/28
f 27/29/27 51/30/28 26/31/29
f 26/31/29 51/30/28 52/32/30
f 26/31/29 52/32/30 25/33/31
f 25/33/31 52/32/30 53/34/32
f 25/33/31 53/34/32 24/35/33
f 24/35/33 53/34/32 54/36/34
f 24/35/33 54/36/34 23/37/35
f 23/37/35 54/36/34 55/38/36
f 23/37/35 55/38/36 22/39/37
f 22/39/37 55/38/36 56/40/38
f 22/39/37 56/40/38 21/41/39
f 21/41/39 56/40/38 57/42/40
f 21/41/39 57/42/40 20/43/41
f 20/43/41 57/42/40 58/44/42
f 20/43/41 58/44/42 19/45/43
f 19/45/43 58/44/42 59/46/44
f 19/45/43 59/46/44 18/47/45
f 18/47/45 59/46/44 60/48/46
f 18/47/45 60/48/46 17/49/47
f 17/49/47 60/48/46 61/50/48
f 17/49/47 61/50/48 16/51/49
f 16/51/49 61/50/48 62/52/50
f 16/51/49 62/52/50 15/53/51
f 15/53/51 62/52/50 63/54/52
f 15/53/51 63/54/52 14/55/53
f 14/55/53 63/54/52 64/56/54
f 14/55/53 64/56/54 13/57/55
f 13/57/55 64/56/54 65/58/56
f 13/57/55 65/58/56 12/59/57
f 12/59/57 65/58/56 66/60/58
f 12/59/57 66/60/58 11/61/59
f 11/61/59 66/60/58 67/62/60
f 11/61/59 67/62/60 10/63/61
f 10/63/61 67/62/60 68/64/62
f 10/63/61 68/64/62 9/65/63
f 9/65/63 68/64/62 69/66/64
f 9/65/63 69/66/64 8/67/65
f 8/67/65 69/66/64 70/68/66
f 8/67/65 70/68/66 7/69/67
f 7/69/67 70/68/66 71/70/68
f 7/69/67 71/70/68 6/71/69
f 6/71/69 71/70/68 72/72/70
f 6/71/69 72/72/70 5/73/71
f 5/73/71 72/72/70 73/74/72
f 5/73/71 73/74/72 4/75/73
f 4/75/73 73/74/72 74/76/74
f 4/75/73 74/76/74 3/77/75
f 3/77/75 74/76/74 75/78/76
f 3/77/75 75/78/76 2/1/1
f 2/1/1 75/78/76 76/2/2
f 38/79/77 21/80/78 1/81/79
f 1/81/79 21/80/78 20/82/80
f 1/81/79 20/82/80 2/83/81
f 2/83/81 20/82/80 19/84/82
f 2/83/81 19/84/82 3/85/83
f 3/85/83 19/84/82 18/86/84
f 3/85/83 18/86/84 4/87/85
f 4/87/85 18/86/84 17/88/86
f 4/87/85 17/88/86 5/89/87
f 5/89/87 17/88/86 16/90/88
f 5/89/87 16/90/88 6/91/89
f 6/91/89 16/90/88 15/92/90
f 6/91/89 15/92/90 7/93/91
f 7/93/91 15/92/90 14/94/92
f 7/93/91 14/94/92 8/95/93
f 8/95/93 14/94/92 13/96/94
f 8/95/93 13/96/94 9/97/95
f 9/97/95 13/96/94 12/98/96
f 9/97/95 12/98/96 10/99/97
f 10/99/97 12/98/96 11/100/98
f 21/80/78 38/79/77 22/101/99
f 22/101/99 38/79/77 37/102/100
f 22/101/99 37/102/100 23/103/101
f 23/103/101 37/102/100 36/104/102
f 23/103/101 36/104/102 24/105/103
f 24/105/103 36/104/102 35/106/104
f 24/105/103 35/106/104 25/107/105
f 25/107/105 35/106/104 34/108/106
f 25/107/105 34/108/106 26/109/107
f 26/109/107 34/108/106 33/110/108
f 26/109/107 33/110/108 27/111/109
f 27/111/109 33/110/108 32/112/110
f 27/111/109 32/112/110 28/113/111
f 28/113/111 32/112/110 31/114/112
f 28/113/111 31/114/112 29/115/113
f 29/115/113 31/114/112 30/116/114
f 76/117/115 59/118/116 39/119/117
f 39/119/117 59/118/116 58/120/118
f 39/119/117 58/120/118 40/121/119
f 40/121/119 58/120/118 57/122/120
f 40/121/119 57/122/120 41/123/121
f 41/123/121 57/122/120 56/124/122
f 41/123/121 56/124/122 42/125/123
f 42/125/123 56/124/122 55/126/124
f 42/125/123 55/126/124 43/127/125
f 43/127/125 55/126/124 54/128/126
f 43/127/125 54/128/126 44/129/127
f 44/129/127 54/128/126 53/130/128
f 44/129/127 53/130/128 45/131/129
f 45/131/129 53/130/128 52/132/130
f 45/131/129 52/132/130 46/133/131
f 46/133/131 52/132/130 51/134/132
f 46/133/131 51/134/132 47/135/133
f 47/135/133 51/134/132 50/136/134
f 47/135/133 50/136/134 48/137/135
f 48/137/135 50/136/134 49/138/136
f 59/118/116 76/117/115 60/139/137
f 60/139/137 76/117/115 75/140/138
f 60/139/137 75/140/138 61/141/139
f 61/141/139 75/140/138 74/142/140
f 61/141/139 74/142/140 62/143/141
f 62/143/141 74/142/140 73/144/142
f 62/143/141 73/144/142 63/145/143
f 63/145/143 73/144/142 72/146/144
f 63/145/143 72/146/144 64/147/145
f 64/147/145 72/146/144 71/148/146
f 64/147/145 71/148/146 65/149/147
f 65/149/147 71/148/146 70/150/148
f 65/149/147 70/150/148 66/151/149
f 66/151/149 70/150/148 69/152/150
f 66/151/149 69/152/150 67/153/151
f 67/153/151 69/152/150 68/154/152

# 76 vertices
# 154 texture params
# 152 normals
# 148 facets

# 1 groups
